<?xml version="1.0" encoding="UTF-8" standalone="no"?>
<svg
   xmlns:dc="http://purl.org/dc/elements/1.1/"
   xmlns:cc="http://creativecommons.org/ns#"
   xmlns:rdf="http://www.w3.org/1999/02/22-rdf-syntax-ns#"
   xmlns:svg="http://www.w3.org/2000/svg"
   xmlns="http://www.w3.org/2000/svg"
   xmlns:sodipodi="http://sodipodi.sourceforge.net/DTD/sodipodi-0.dtd"
   xmlns:inkscape="http://www.inkscape.org/namespaces/inkscape"
   width="24"
   height="24"
   viewBox="0 0 24 24"
   version="1.1"
   id="svg4"
   sodipodi:docname="dribbble.svg"
   inkscape:version="0.92.3 (2405546, 2018-03-11)">
  <metadata
     id="metadata10">
    <rdf:RDF>
      <cc:Work
         rdf:about="">
        <dc:format>image/svg+xml</dc:format>
        <dc:type
           rdf:resource="http://purl.org/dc/dcmitype/StillImage" />
      </cc:Work>
    </rdf:RDF>
  </metadata>
  <defs
     id="defs8" />
  <sodipodi:namedview
     pagecolor="#ffffff"
     bordercolor="#666666"
     borderopacity="1"
     objecttolerance="10"
     gridtolerance="10"
     guidetolerance="10"
     inkscape:pageopacity="0"
     inkscape:pageshadow="2"
     inkscape:window-width="1366"
     inkscape:window-height="745"
     id="namedview6"
     showgrid="false"
     inkscape:zoom="9.8333333"
     inkscape:cx="12"
     inkscape:cy="12"
     inkscape:window-x="-8"
     inkscape:window-y="-8"
     inkscape:window-maximized="1"
     inkscape:current-layer="svg4" />
  <path
     d="M12 0c-6.628 0-12 5.373-12 12s5.372 12 12 12 12-5.373 12-12-5.372-12-12-12zm9.885 11.441c-2.575-.422-4.943-.445-7.103-.073-.244-.563-.497-1.125-.767-1.68 2.31-1 4.165-2.358 5.548-4.082 1.35 1.594 2.197 3.619 2.322 5.835zm-3.842-7.282c-1.205 1.554-2.868 2.783-4.986 3.68-1.016-1.861-2.178-3.676-3.488-5.438.779-.197 1.591-.314 2.431-.314 2.275 0 4.368.779 6.043 2.072zm-10.516-.993c1.331 1.742 2.511 3.538 3.537 5.381-2.43.715-5.331 1.082-8.684 1.105.692-2.835 2.601-5.193 5.147-6.486zm-5.44 8.834l.013-.256c3.849-.005 7.169-.448 9.95-1.322.233.475.456.952.67 1.432-3.38 1.057-6.165 3.222-8.337 6.48-1.432-1.719-2.296-3.927-2.296-6.334zm3.829 7.81c1.969-3.088 4.482-5.098 7.598-6.027.928 2.42 1.609 4.91 2.043 7.46-3.349 1.291-6.953.666-9.641-1.433zm11.586.43c-.438-2.353-1.08-4.653-1.92-6.897 1.876-.265 3.94-.196 6.199.196-.437 2.786-2.028 5.192-4.279 6.701z"
     id="path2"
     style="fill:#a6bfaf;fill-opacity:1" />
</svg>
